# WaveFront *.obj file (generated by Autodesk ATF)

mtllib 03363000-7e60-4bdf-a4c8-41088b8a02f6.mtl

g Body1

v -0.539413 0.500000 3.037719
v -0.423767 0.500000 3.335874
v -0.159898 0.500000 3.516548
v 0.159898 0.500000 3.516548
v 0.423767 0.500000 3.335874
v 0.539413 0.500000 3.037719
v 0.748173 0.500000 0.052317
v 0.624691 0.500000 -0.415044
v 0.241699 0.500000 -0.709987
v -0.241699 0.500000 -0.709987
v -0.624691 0.500000 -0.415044
v -0.748173 0.500000 0.052317
v -0.423767 -0.500000 3.335874
v -0.159898 -0.500000 3.516548
v 0.159898 -0.500000 3.516548
v 0.423767 -0.500000 3.335874
v 0.539413 -0.500000 3.037719
v 0.748173 -0.500000 0.052317
v 0.624691 -0.500000 -0.415044
v 0.241699 -0.500000 -0.709987
v -0.241699 -0.500000 -0.709987
v -0.624691 -0.500000 -0.415044
v -0.748173 -0.500000 0.052317
v -0.539413 -0.500000 3.037719
vt -0.193259 0.042377 0.000000
vt -0.211327 0.015990 0.000000
vt -0.163444 0.053941 0.000000
vt -0.211327 -0.015990 0.000000
vt -0.193259 -0.042377 0.000000
vt -0.163444 -0.053941 0.000000
vt 0.135096 0.074817 0.000000
vt 0.135096 -0.074817 0.000000
vt 0.181832 -0.062469 0.000000
vt 0.211327 -0.024170 0.000000
vt 0.211327 0.024170 0.000000
vt 0.181832 0.062469 0.000000
vt 0.031980 0.050000 0.000000
vt -0.000000 0.050000 0.000000
vt 0.031980 -0.050000 0.000000
vt 0.000000 -0.050000 0.000000
vt 0.031980 0.050000 0.000000
vt -0.000000 0.050000 0.000000
vt 0.031980 -0.050000 0.000000
vt 0.000000 -0.050000 0.000000
vt 0.031980 0.050000 0.000000
vt 0.000000 0.050000 0.000000
vt 0.031980 -0.050000 0.000000
vt 0.000000 -0.050000 0.000000
vt 0.031980 0.050000 0.000000
vt 0.000000 0.050000 0.000000
vt 0.031980 -0.050000 0.000000
vt 0.000000 -0.050000 0.000000
vt 0.299269 0.050000 0.000000
vt -0.000000 0.050000 0.000000
vt 0.299269 -0.050000 0.000000
vt -0.000000 -0.050000 0.000000
vt 0.048340 0.050000 0.000000
vt -0.000000 0.050000 0.000000
vt 0.048340 -0.050000 0.000000
vt -0.000000 -0.050000 0.000000
vt 0.048340 0.050000 0.000000
vt -0.000000 0.050000 0.000000
vt 0.048340 -0.050000 0.000000
vt -0.000000 -0.050000 0.000000
vt 0.048340 0.050000 0.000000
vt -0.000000 0.050000 0.000000
vt 0.048340 -0.050000 0.000000
vt -0.000000 -0.050000 0.000000
vt 0.048340 0.050000 0.000000
vt -0.000000 0.050000 0.000000
vt 0.048340 -0.050000 0.000000
vt -0.000000 -0.050000 0.000000
vt 0.048340 0.050000 0.000000
vt 0.000000 0.050000 0.000000
vt 0.048340 -0.050000 0.000000
vt 0.000000 -0.050000 0.000000
vt 0.299269 0.050000 0.000000
vt 0.000000 0.050000 0.000000
vt 0.299269 -0.050000 0.000000
vt 0.000000 -0.050000 0.000000
vt 0.031980 0.050000 0.000000
vt -0.000000 0.050000 0.000000
vt 0.031980 -0.050000 0.000000
vt 0.000000 -0.050000 0.000000
vt 0.193259 0.042377 0.000000
vt 0.163444 0.053941 0.000000
vt 0.211327 0.015990 0.000000
vt 0.211327 -0.015990 0.000000
vt 0.193259 -0.042377 0.000000
vt 0.163444 -0.053941 0.000000
vt -0.135096 0.074817 0.000000
vt -0.135096 -0.074817 0.000000
vt -0.181832 -0.062469 0.000000
vt -0.211327 -0.024170 0.000000
vt -0.211327 0.024170 0.000000
vt -0.181832 0.062469 0.000000
vn 0.000000 0.100000 0.000000
vn 0.000000 0.100000 0.000000
vn 0.000000 0.100000 0.000000
vn 0.000000 0.100000 0.000000
vn 0.000000 0.100000 0.000000
vn 0.000000 0.100000 0.000000
vn 0.000000 0.100000 0.000000
vn 0.000000 0.100000 0.000000
vn 0.000000 0.100000 0.000000
vn 0.000000 0.100000 0.000000
vn 0.000000 0.100000 0.000000
vn 0.000000 0.100000 0.000000
vn -0.056497 0.000000 0.082511
vn -0.056497 0.000000 0.082511
vn -0.056497 0.000000 0.082511
vn -0.056497 0.000000 0.082511
vn -0.000000 0.000000 0.100000
vn -0.000000 0.000000 0.100000
vn -0.000000 0.000000 0.100000
vn -0.000000 0.000000 0.100000
vn 0.056497 0.000000 0.082511
vn 0.056497 0.000000 0.082511
vn 0.056497 0.000000 0.082511
vn 0.056497 0.000000 0.082511
vn 0.093232 0.000000 0.036162
vn 0.093232 0.000000 0.036162
vn 0.093232 0.000000 0.036162
vn 0.093232 0.000000 0.036162
vn 0.099756 0.000000 0.006976
vn 0.099756 0.000000 0.006976
vn 0.099756 0.000000 0.006976
vn 0.099756 0.000000 0.006976
vn 0.096682 0.000000 -0.025545
vn 0.096682 0.000000 -0.025545
vn 0.096682 0.000000 -0.025545
vn 0.096682 0.000000 -0.025545
vn 0.061015 0.000000 -0.079229
vn 0.061015 0.000000 -0.079229
vn 0.061015 0.000000 -0.079229
vn 0.061015 0.000000 -0.079229
vn -0.000000 0.000000 -0.100000
vn -0.000000 0.000000 -0.100000
vn -0.000000 0.000000 -0.100000
vn -0.000000 0.000000 -0.100000
vn -0.061015 0.000000 -0.079229
vn -0.061015 0.000000 -0.079229
vn -0.061015 0.000000 -0.079229
vn -0.061015 0.000000 -0.079229
vn -0.096682 0.000000 -0.025545
vn -0.096682 0.000000 -0.025545
vn -0.096682 0.000000 -0.025545
vn -0.096682 0.000000 -0.025545
vn -0.099756 0.000000 0.006976
vn -0.099756 0.000000 0.006976
vn -0.099756 0.000000 0.006976
vn -0.099756 0.000000 0.006976
vn -0.093232 0.000000 0.036162
vn -0.093232 0.000000 0.036162
vn -0.093232 0.000000 0.036162
vn -0.093232 0.000000 0.036162
vn 0.000000 -0.100000 0.000000
vn 0.000000 -0.100000 0.000000
vn 0.000000 -0.100000 0.000000
vn 0.000000 -0.100000 0.000000
vn 0.000000 -0.100000 0.000000
vn 0.000000 -0.100000 0.000000
vn 0.000000 -0.100000 0.000000
vn 0.000000 -0.100000 0.000000
vn 0.000000 -0.100000 0.000000
vn 0.000000 -0.100000 0.000000
vn 0.000000 -0.100000 0.000000
vn 0.000000 -0.100000 0.000000
usemtl Steel_-_Satin
f 2/1/1 3/2/2 1/3/3
f 1/3/3 3/2/2 4/4/4
f 1/3/3 4/4/4 5/5/5
f 5/5/5 6/6/6 1/3/3
f 1/3/3 6/6/6 12/7/7
f 12/7/7 6/6/6 7/8/8
f 12/7/7 7/8/8 8/9/9
f 8/9/9 9/10/10 12/7/7
f 12/7/7 9/10/10 10/11/11
f 12/7/7 10/11/11 11/12/12
f 13/13/13 14/14/14 2/15/15
f 2/15/15 14/14/14 3/16/16
f 14/17/17 15/18/18 3/19/19
f 3/19/19 15/18/18 4/20/20
f 15/21/21 16/22/22 4/23/23
f 4/23/23 16/22/22 5/24/24
f 16/25/25 17/26/26 5/27/27
f 5/27/27 17/26/26 6/28/28
f 17/29/29 18/30/30 6/31/31
f 6/31/31 18/30/30 7/32/32
f 18/33/33 19/34/34 7/35/35
f 7/35/35 19/34/34 8/36/36
f 19/37/37 20/38/38 8/39/39
f 8/39/39 20/38/38 9/40/40
f 20/41/41 21/42/42 9/43/43
f 9/43/43 21/42/42 10/44/44
f 21/45/45 22/46/46 10/47/47
f 10/47/47 22/46/46 11/48/48
f 22/49/49 23/50/50 11/51/51
f 11/51/51 23/50/50 12/52/52
f 23/53/53 24/54/54 12/55/55
f 12/55/55 24/54/54 1/56/56
f 24/57/57 13/58/58 1/59/59
f 1/59/59 13/58/58 2/60/60
f 13/61/61 24/62/62 14/63/63
f 14/63/63 24/62/62 15/64/64
f 15/64/64 24/62/62 16/65/65
f 16/65/65 24/62/62 17/66/66
f 17/66/66 24/62/62 23/67/67
f 17/66/66 23/67/67 18/68/68
f 18/68/68 23/67/67 19/69/69
f 19/69/69 23/67/67 20/70/70
f 20/70/70 23/67/67 21/71/71
f 21/71/71 23/67/67 22/72/72

# 24 vertices
# 72 texture params
# 72 normals
# 44 facets

# 1 groups
