# WaveFront *.obj file (generated by Autodesk ATF)

mtllib 55021156-46a7-48f6-a4ea-00dfe13f5d42.mtl

g Body1

v -0.600000 0.248528 0.000000
v -0.248528 0.600000 0.000000
v -0.248528 0.600000 -1.500000
v -0.600000 0.248528 -1.500000
v -0.600000 -0.248528 0.000000
v -0.600000 -0.248528 -1.500000
v -0.248528 -0.600000 0.000000
v -0.248528 -0.600000 -1.500000
v 0.248528 -0.600000 0.000000
v 0.248528 -0.600000 -1.500000
v 0.600000 -0.248528 0.000000
v 0.600000 -0.248528 -1.500000
v 0.600000 0.248528 0.000000
v 0.600000 0.248528 -1.500000
v 0.248528 0.600000 0.000000
v 0.248528 0.600000 -1.500000
vt 0.000000 0.000000 0.000000
vt 0.049706 0.000000 0.000000
vt 0.000000 0.150000 0.000000
vt 0.049706 0.150000 0.000000
vt 0.000000 0.000000 0.000000
vt 0.049706 0.000000 0.000000
vt 0.000000 0.150000 0.000000
vt 0.049706 0.150000 0.000000
vt 0.000000 0.000000 0.000000
vt 0.049706 0.000000 0.000000
vt 0.000000 0.150000 0.000000
vt 0.049706 0.150000 0.000000
vt -0.000000 0.000000 0.000000
vt 0.049706 0.000000 0.000000
vt 0.000000 0.150000 0.000000
vt 0.049706 0.150000 0.000000
vt -0.000000 0.000000 0.000000
vt 0.049706 -0.000000 0.000000
vt 0.000000 0.150000 0.000000
vt 0.049706 0.150000 0.000000
vt -0.000000 0.000000 0.000000
vt 0.049706 0.000000 0.000000
vt 0.000000 0.150000 0.000000
vt 0.049706 0.150000 0.000000
vt 0.000000 0.000000 0.000000
vt 0.049706 0.000000 0.000000
vt 0.000000 0.150000 0.000000
vt 0.049706 0.150000 0.000000
vt 0.000000 0.000000 0.000000
vt 0.049706 0.000000 0.000000
vt 0.000000 0.150000 0.000000
vt 0.049706 0.150000 0.000000
vt 0.024853 0.060000 0.000000
vt -0.024853 0.060000 0.000000
vt 0.060000 0.024853 0.000000
vt -0.060000 0.024853 0.000000
vt 0.060000 -0.024853 0.000000
vt -0.060000 -0.024853 0.000000
vt 0.024853 -0.060000 0.000000
vt -0.024853 -0.060000 0.000000
vt 0.024853 0.060000 0.000000
vt -0.024853 0.060000 0.000000
vt 0.060000 0.024853 0.000000
vt -0.060000 0.024853 0.000000
vt 0.060000 -0.024853 0.000000
vt -0.060000 -0.024853 0.000000
vt 0.024853 -0.060000 0.000000
vt -0.024853 -0.060000 0.000000
vn -0.070711 0.070711 0.000000
vn -0.070711 0.070711 0.000000
vn -0.070711 0.070711 0.000000
vn -0.070711 0.070711 0.000000
vn -0.100000 -0.000000 0.000000
vn -0.100000 -0.000000 0.000000
vn -0.100000 -0.000000 0.000000
vn -0.100000 -0.000000 0.000000
vn -0.070711 -0.070711 0.000000
vn -0.070711 -0.070711 0.000000
vn -0.070711 -0.070711 0.000000
vn -0.070711 -0.070711 0.000000
vn 0.000000 -0.100000 0.000000
vn 0.000000 -0.100000 0.000000
vn 0.000000 -0.100000 0.000000
vn 0.000000 -0.100000 0.000000
vn 0.070711 -0.070711 0.000000
vn 0.070711 -0.070711 0.000000
vn 0.070711 -0.070711 0.000000
vn 0.070711 -0.070711 0.000000
vn 0.100000 -0.000000 0.000000
vn 0.100000 -0.000000 0.000000
vn 0.100000 -0.000000 0.000000
vn 0.100000 -0.000000 0.000000
vn 0.070711 0.070711 0.000000
vn 0.070711 0.070711 0.000000
vn 0.070711 0.070711 0.000000
vn 0.070711 0.070711 0.000000
vn -0.000000 0.100000 0.000000
vn -0.000000 0.100000 0.000000
vn -0.000000 0.100000 0.000000
vn -0.000000 0.100000 0.000000
vn 0.000000 0.000000 0.100000
vn 0.000000 0.000000 0.100000
vn 0.000000 0.000000 0.100000
vn 0.000000 0.000000 0.100000
vn 0.000000 0.000000 0.100000
vn 0.000000 0.000000 0.100000
vn 0.000000 0.000000 0.100000
vn 0.000000 0.000000 0.100000
vn 0.000000 0.000000 -0.100000
vn 0.000000 0.000000 -0.100000
vn 0.000000 0.000000 -0.100000
vn 0.000000 0.000000 -0.100000
vn 0.000000 0.000000 -0.100000
vn 0.000000 0.000000 -0.100000
vn 0.000000 0.000000 -0.100000
vn 0.000000 0.000000 -0.100000
usemtl Steel_-_Satin
f 1/1/1 2/2/2 4/3/3
f 4/3/3 2/2/2 3/4/4
f 5/5/5 1/6/6 6/7/7
f 6/7/7 1/6/6 4/8/8
f 7/9/9 5/10/10 8/11/11
f 8/11/11 5/10/10 6/12/12
f 9/13/13 7/14/14 10/15/15
f 10/15/15 7/14/14 8/16/16
f 11/17/17 9/18/18 12/19/19
f 12/19/19 9/18/18 10/20/20
f 13/21/21 11/22/22 14/23/23
f 14/23/23 11/22/22 12/24/24
f 15/25/25 13/26/26 16/27/27
f 16/27/27 13/26/26 14/28/28
f 2/29/29 15/30/30 3/31/31
f 3/31/31 15/30/30 16/32/32
f 15/33/33 2/34/34 13/35/35
f 13/35/35 2/34/34 1/36/36
f 13/35/35 1/36/36 11/37/37
f 11/37/37 1/36/36 5/38/38
f 11/37/37 5/38/38 9/39/39
f 9/39/39 5/38/38 7/40/40
f 3/41/41 16/42/42 4/43/43
f 4/43/43 16/42/42 14/44/44
f 4/43/43 14/44/44 6/45/45
f 6/45/45 14/44/44 12/46/46
f 6/45/45 12/46/46 8/47/47
f 8/47/47 12/46/46 10/48/48

# 16 vertices
# 48 texture params
# 48 normals
# 28 facets

# 1 groups
